<svg width="12" height="12" viewBox="0 0 12 12" fill="none" xmlns="http://www.w3.org/2000/svg">
<g id="apple (1) 1" clip-path="url(#clip0_219_704)">
<g id="_Group_2">
<g id="_Group_3">
<path id="_Path_" d="M9.27367 6.38139C9.28567 5.44639 9.77567 4.58289 10.5722 4.09339C10.0677 3.37239 9.25217 2.93189 8.37267 2.90439C7.44717 2.80739 6.55017 3.45789 6.07867 3.45789C5.59817 3.45789 4.87217 2.91389 4.09017 2.92989C3.06167 2.96339 2.12567 3.53389 1.62517 4.43339C0.559669 6.27839 1.35417 8.99039 2.37517 10.4819C2.88617 11.2124 3.48267 12.0279 4.26417 11.9994C5.02867 11.9679 5.31417 11.5119 6.23667 11.5119C7.15067 11.5119 7.41867 11.9994 8.21567 11.9809C9.03567 11.9674 9.55267 11.2474 10.0457 10.5099C10.4127 9.98939 10.6952 9.41439 10.8822 8.80589C9.90817 8.39389 9.27467 7.43939 9.27367 6.38139Z" fill="white"/>
<path id="_Path_2" d="M7.7679 1.9235C8.2149 1.3865 8.4354 0.6965 8.3819 0C7.6989 0.072 7.0674 0.3985 6.6144 0.9145C6.1669 1.424 5.9399 2.09 5.9839 2.767C6.6764 2.774 7.3339 2.463 7.7679 1.9235Z" fill="white"/>
</g>
</g>
</g>
<defs>
<clipPath id="clip0_219_704">
<rect width="12" height="12" fill="white"/>
</clipPath>
</defs>
</svg>
