<svg width="15" height="14" viewBox="0 0 15 14" fill="none" xmlns="http://www.w3.org/2000/svg">
<path d="M8.5 1C8.5 0.447715 8.05228 -2.41412e-08 7.5 0C6.94772 2.41412e-08 6.5 0.447715 6.5 1L8.5 1ZM6.79289 13.7071C7.18342 14.0976 7.81658 14.0976 8.20711 13.7071L14.5711 7.34315C14.9616 6.95262 14.9616 6.31946 14.5711 5.92893C14.1805 5.53841 13.5474 5.53841 13.1569 5.92893L7.5 11.5858L1.84315 5.92893C1.45262 5.53841 0.819457 5.53841 0.428932 5.92893C0.038408 6.31946 0.0384081 6.95262 0.428932 7.34315L6.79289 13.7071ZM6.5 1L6.5 13L8.5 13L8.5 1L6.5 1Z" fill="black"/>
</svg>
