<svg width="12" height="12" viewBox="0 0 12 12" fill="none" xmlns="http://www.w3.org/2000/svg">
<path d="M9.98668 8.40004L10.0367 8.45004C10.1502 8.56451 10.2908 8.64842 10.4454 8.69397C10.6001 8.73951 10.7637 8.74521 10.9211 8.71053C11.076 8.67802 11.2203 8.60709 11.3406 8.50425C11.4609 8.40142 11.5534 8.26998 11.6096 8.12204C11.8857 7.3972 12.0176 6.62545 11.9981 5.85006C11.9418 4.32709 11.3154 2.88083 10.2431 1.79797C9.17069 0.715108 7.73063 0.0746794 6.2083 0.00362395C5.40332 -0.0243666 4.60094 0.110018 3.84901 0.398766C3.09708 0.687514 2.41098 1.12471 1.83162 1.6843C1.25227 2.24388 0.791513 2.9144 0.476831 3.65587C0.16215 4.39734 -1.66157e-05 5.19458 1.27692e-09 6.00006C0.00185255 7.59078 0.634568 9.11581 1.75935 10.2406C2.88413 11.3654 4.40913 11.9981 5.99981 12C6.1688 12 6.33479 11.989 6.49979 11.975C6.62498 11.9644 6.74162 11.9071 6.82648 11.8145C6.91135 11.7219 6.95822 11.6006 6.95777 11.475L6.94177 9.68102C6.93773 9.32651 7.03943 8.97884 7.23389 8.6824C7.42835 8.38596 7.70674 8.1542 8.03353 8.01672C8.36032 7.87925 8.72066 7.84228 9.06855 7.91056C9.41644 7.97883 9.73609 8.14925 9.98668 8.40004ZM8.51572 4.02508C8.65908 3.98704 8.8105 3.99236 8.95084 4.04038C9.09117 4.08839 9.21412 4.17694 9.30414 4.29482C9.39415 4.41271 9.44719 4.55464 9.45655 4.70267C9.46591 4.8507 9.43117 4.99818 9.35672 5.12646C9.28226 5.25474 9.17145 5.35807 9.03827 5.42338C8.9051 5.48868 8.75556 5.51303 8.60855 5.49335C8.46154 5.47367 8.32367 5.41084 8.21237 5.3128C8.10106 5.21476 8.02133 5.08592 7.98324 4.94257C7.95795 4.84737 7.95165 4.74811 7.96473 4.65047C7.9778 4.55283 8.00998 4.45872 8.05942 4.37352C8.10887 4.28832 8.17462 4.21369 8.25291 4.15391C8.33121 4.09412 8.42051 4.05035 8.51572 4.02508ZM3.90087 8.47504C3.75751 8.51308 3.60609 8.50775 3.46576 8.45974C3.32542 8.41173 3.20248 8.32318 3.11246 8.2053C3.02244 8.08741 2.9694 7.94548 2.96005 7.79745C2.95069 7.64942 2.98543 7.50194 3.05988 7.37366C3.13433 7.24538 3.24515 7.14205 3.37832 7.07674C3.51149 7.01144 3.66104 6.98709 3.80805 7.00677C3.95506 7.02645 4.09293 7.08928 4.20423 7.18732C4.31554 7.28536 4.39527 7.4142 4.43336 7.55755C4.45865 7.65275 4.46494 7.75201 4.45187 7.84965C4.4388 7.94729 4.40662 8.0414 4.35717 8.1266C4.30772 8.2118 4.24198 8.28642 4.16368 8.34621C4.08539 8.406 3.99609 8.44977 3.90087 8.47504ZM3.90087 5.47507C3.75751 5.51311 3.60609 5.50779 3.46576 5.45977C3.32542 5.41176 3.20248 5.32321 3.11246 5.20533C3.02244 5.08744 2.9694 4.94551 2.96005 4.79748C2.95069 4.64945 2.98543 4.50197 3.05988 4.37369C3.13433 4.24541 3.24515 4.14208 3.37832 4.07678C3.51149 4.01147 3.66104 3.98712 3.80805 4.0068C3.95506 4.02648 4.09293 4.08931 4.20423 4.18735C4.31554 4.28539 4.39527 4.41423 4.43336 4.55758C4.45865 4.65278 4.46494 4.75204 4.45187 4.84968C4.4388 4.94732 4.40662 5.04143 4.35717 5.12663C4.30772 5.21183 4.24198 5.28646 4.16368 5.34624C4.08539 5.40603 3.99609 5.4498 3.90087 5.47507ZM6.40079 3.97508C6.25743 4.01312 6.10601 4.0078 5.96568 3.95979C5.82534 3.91178 5.70239 3.82323 5.61238 3.70534C5.52236 3.58746 5.46932 3.44553 5.45997 3.2975C5.45061 3.14947 5.48535 3.00199 5.5598 2.87371C5.63425 2.74542 5.74507 2.6421 5.87824 2.57679C6.01141 2.51149 6.16096 2.48713 6.30797 2.50682C6.45498 2.5265 6.59285 2.58933 6.70415 2.68737C6.81545 2.7854 6.89519 2.91424 6.93328 3.05759C6.95857 3.1528 6.96486 3.25206 6.95179 3.3497C6.93872 3.44734 6.90654 3.54145 6.85709 3.62665C6.80764 3.71185 6.7419 3.78647 6.6636 3.84626C6.58531 3.90604 6.49601 3.94982 6.40079 3.97508Z" fill="black"/>
</svg>
