<svg width="187" height="195" viewBox="0 0 187 195" fill="none" xmlns="http://www.w3.org/2000/svg">
<path d="M184.328 68.1983C181.783 62.6558 175.228 58.4723 169.539 60.6706C171.125 50.7714 171.258 39.6464 164.916 31.8922C157.628 22.9789 142.426 22.2595 134.272 30.4267C131.768 19.768 127.238 8.66968 117.725 3.38032C108.585 -1.69587 96.674 -0.763239 87.4943 4.23301C72.3723 12.4535 60.4346 24.4845 55.5183 37.6879C48.0039 30.5732 31.0967 33.531 23.1293 38.5805C10.5121 46.5745 -0.0133107 58.9919 1.26349e-05 86.8243L185.874 86.2247C186.447 80.1227 186.873 73.7275 184.328 68.1983Z" fill="black"/>
<path d="M55.4518 37.1016C61.6605 42.5641 65.7507 53.809 65.5109 60.6039" stroke="#575F7A" stroke-miterlimit="10"/>
<path d="M134.446 30.5742C127.135 37.2543 121.354 45.4349 117.499 54.5562" stroke="#575F7A" stroke-miterlimit="10"/>
<path d="M170.192 60.6055C164.164 62.9622 159.216 67.4592 156.296 73.236" stroke="#575F7A" stroke-miterlimit="10"/>
<path d="M165.836 125.25C165.152 128.108 163.556 130.666 161.289 132.536C159.022 134.407 156.208 135.488 153.272 135.615C147.543 135.615 143.945 130.979 145.104 125.25C146.077 120.707 156.149 103.933 160.28 97.2709C160.428 97.0654 160.632 96.9065 160.868 96.8129C161.103 96.7193 161.361 96.6948 161.61 96.7424C161.859 96.79 162.089 96.9076 162.273 97.0814C162.458 97.2553 162.589 97.4782 162.651 97.7239C163.957 104.692 166.782 120.867 165.836 125.25Z" fill="#566EBC"/>
<path d="M79.2739 184.54C78.5879 187.396 76.9909 189.951 74.7242 191.819C72.4575 193.687 69.6443 194.766 66.71 194.893C60.981 194.893 57.3837 190.256 58.5428 184.54C59.5154 179.997 69.5878 163.223 73.7181 156.562C73.8655 156.356 74.0685 156.197 74.3032 156.102C74.5379 156.008 74.7947 155.982 75.0435 156.028C75.2922 156.074 75.5227 156.19 75.708 156.363C75.8933 156.535 76.0256 156.756 76.0896 157.001C77.3953 163.969 80.2198 180.091 79.2739 184.54Z" fill="#566EBC"/>
<path d="M44.9531 137.802C44.2671 140.658 42.6701 143.213 40.4034 145.081C38.1367 146.948 35.3235 148.027 32.3892 148.154C26.6602 148.154 23.0629 143.518 24.222 137.802C25.1946 133.259 35.267 116.485 39.3973 109.823C39.5447 109.618 39.7477 109.458 39.9824 109.364C40.2171 109.269 40.4739 109.244 40.7227 109.29C40.9714 109.336 41.2019 109.452 41.3872 109.624C41.5724 109.797 41.7048 110.018 41.7688 110.263C43.1011 117.231 45.9257 133.352 44.9531 137.802Z" fill="#566EBC"/>
<path d="M124.253 68.998L79.4603 135.335H106.254L87.9073 191.946L140.788 117.442H110.81L124.253 68.998Z" fill="#FF7C39"/>
</svg>
