<svg width="66" height="66" viewBox="0 0 66 66" fill="none" xmlns="http://www.w3.org/2000/svg">
<circle cx="33" cy="33" r="33" transform="rotate(180 33 33)" fill="url(#paint0_angular_317_684)" fill-opacity="0.1"/>
<circle cx="32.6774" cy="32.6774" r="27.6774" fill="url(#paint1_angular_317_684)" fill-opacity="0.1"/>
<path d="M33.4985 22H28.2479C26.8005 22 25.6227 23.1777 25.6227 24.625V27.25C25.6227 28.6972 26.8005 29.875 28.2479 29.875H33.4985C34.9459 29.875 36.1238 28.6972 36.1238 27.25V24.625C36.1238 23.1777 34.9459 22 33.4985 22ZM31.7483 25.5H29.9981C29.5151 25.5 29.123 25.1089 29.123 24.625C29.123 24.1411 29.5151 23.75 29.9981 23.75H31.7483C32.2314 23.75 32.6234 24.1411 32.6234 24.625C32.6234 25.1089 32.2314 25.5 31.7483 25.5ZM43.4229 32.8019L36.683 40.1597C35.0255 41.9692 32.6838 43 30.23 43H26.5004C24.5673 43 23 41.4329 23 39.5V35.125C23 33.1921 24.5673 31.625 26.5004 31.625H33.3147C34.5171 31.625 35.4675 32.7275 35.2084 33.9744C35.0404 34.7846 34.3298 35.3726 33.5108 35.4899L29.8686 36C29.3899 36.0682 29.0574 36.5119 29.1265 36.9896C29.1948 37.4683 29.6385 37.7999 30.1163 37.7316L33.8372 37.2101C35.6416 36.9529 37.0024 35.384 37.0024 33.5614C37.0024 33.3698 36.9744 33.186 36.9455 33.0031L40.0442 29.7333C40.4424 29.2958 41.0042 29.0306 41.6141 29.0026C42.2197 28.9729 42.8069 29.1855 43.2576 29.5959C44.1782 30.4341 44.2534 31.8717 43.4229 32.8019Z" fill="#797979"/>
<defs>
<radialGradient id="paint0_angular_317_684" cx="0" cy="0" r="1" gradientUnits="userSpaceOnUse" gradientTransform="translate(33 33) rotate(90) scale(33)">
<stop/>
<stop offset="1" stop-opacity="0.03"/>
</radialGradient>
<radialGradient id="paint1_angular_317_684" cx="0" cy="0" r="1" gradientUnits="userSpaceOnUse" gradientTransform="translate(32.6774 32.6774) rotate(90) scale(27.6774)">
<stop/>
<stop offset="1" stop-opacity="0.03"/>
</radialGradient>
</defs>
</svg>
