<svg width="16" height="16" viewBox="0 0 16 16" fill="none" xmlns="http://www.w3.org/2000/svg">
<mask id="path-1-inside-1_268_639" fill="white">
<path d="M16 8C16 3.58172 12.4183 0 8 0C3.58172 0 0 3.58172 0 8C0 12.4183 3.58172 16 8 16C12.4183 16 16 12.4183 16 8Z"/>
</mask>
<path d="M8.5 4.53346C8.5 4.25732 8.27614 4.03346 8 4.03346C7.72386 4.03346 7.5 4.25732 7.5 4.53346H8.5ZM7.5 8.79124C7.5 9.06738 7.72386 9.29124 8 9.29124C8.27614 9.29124 8.5 9.06738 8.5 8.79124H7.5ZM8 11.5C7.72386 11.5 7.5 11.7239 7.5 12C7.5 12.2761 7.72386 12.5 8 12.5V11.5ZM8.00902 12.5C8.28517 12.5 8.50902 12.2761 8.50902 12C8.50902 11.7239 8.28517 11.5 8.00902 11.5V12.5ZM7.5 4.53346V8.79124H8.5V4.53346H7.5ZM8 12.5H8.00902V11.5H8V12.5ZM8 1C11.866 1 15 4.13401 15 8H17C17 3.02944 12.9706 -1 8 -1V1ZM15 8C15 11.866 11.866 15 8 15V17C12.9706 17 17 12.9706 17 8H15ZM8 15C4.13401 15 1 11.866 1 8H-1C-1 12.9706 3.02944 17 8 17V15ZM1 8C1 4.13401 4.13401 1 8 1V-1C3.02944 -1 -1 3.02944 -1 8H1Z" fill="#B3B3B3" mask="url(#path-1-inside-1_268_639)"/>
</svg>
