<svg width="12" height="12" viewBox="0 0 12 12" fill="none" xmlns="http://www.w3.org/2000/svg">
<g id="Vector">
<path d="M9.48823 2.22045C9.32761 2.22045 9.1969 2.35116 9.1969 2.51177C9.1969 2.67239 9.32761 2.8031 9.48823 2.8031C9.64887 2.8031 9.77955 2.67241 9.77955 2.51177C9.77955 2.35113 9.64887 2.22045 9.48823 2.22045ZM6 3.41728C4.57589 3.41728 3.41728 4.57589 3.41728 6C3.41728 7.42411 4.57589 8.58274 6 8.58274C7.42413 8.58274 8.58274 7.42413 8.58274 6.00002C8.58274 4.57591 7.42413 3.41728 6 3.41728Z" fill="black"/>
<path d="M8.71038 0H3.28962C1.47572 0 0 1.47572 0 3.28964V8.71038C0 10.5243 1.47572 12 3.28962 12H8.71038C10.5243 12 12 10.5243 12 8.71038V3.28964C12 1.47572 10.5243 0 8.71038 0ZM6 9.29138C4.18512 9.29138 2.70865 7.81488 2.70865 6C2.70865 4.18512 4.18514 2.70867 6 2.70867C7.81486 2.70867 9.29138 4.18514 9.29138 6C9.29138 7.81486 7.81486 9.29138 6 9.29138ZM9.48823 3.51178C8.93684 3.51178 8.48824 3.06319 8.48824 2.5118C8.48824 1.96041 8.93684 1.51179 9.48823 1.51179C10.0396 1.51179 10.4882 1.96038 10.4882 2.51177C10.4882 3.06316 10.0396 3.51178 9.48823 3.51178Z" fill="black"/>
</g>
</svg>
