<svg width="772" height="819" viewBox="0 0 772 819" fill="none" xmlns="http://www.w3.org/2000/svg">
<path fill-rule="evenodd" clip-rule="evenodd" d="M373.46 571.591L364.674 546.159H290.365L243.19 677.253H336.895L373.46 571.591Z" fill="url(#paint0_linear_1153_1541)"/>
<path fill-rule="evenodd" clip-rule="evenodd" d="M5.70124 677.25L216.252 92.1624C235.693 36.9418 274.7 0 333.243 0H351.177L347.239 2.72236C318.508 22.5838 306.63 59.2213 318.243 92.1624L528.795 677.25H435.089L381.596 522.407H152.992L99.4066 677.25C87.9998 711.199 98.7756 748.665 126.478 771.364L184.615 819.002L64.2596 792.778C12.4108 781.481 -11.9421 727.296 5.70124 677.25ZM265.105 198.438H269.676L355.936 448.129H178.697L265.105 198.438Z" fill="url(#paint1_linear_1153_1541)"/>
<path d="M555.731 92.1655L766.283 677.253C783.926 727.299 759.573 781.483 707.724 792.781L587.368 819.005L645.506 771.367C673.208 748.668 683.984 711.202 672.577 677.253L619.084 522.41H498.312L471.582 448.132H593.424L507.164 198.441H502.593L443.342 369.657L398.612 245.36L453.741 92.1655C465.354 59.2243 453.476 22.5875 424.744 2.72612L420.806 0.00376869H438.741C497.283 0.00376869 536.291 36.9448 555.731 92.1655Z" fill="url(#paint2_linear_1153_1541)"/>
<defs>
<linearGradient id="paint0_linear_1153_1541" x1="-52.679" y1="-1119.31" x2="1215.36" y2="-1074.63" gradientUnits="userSpaceOnUse">
<stop stop-color="white"/>
<stop offset="1"/>
</linearGradient>
<linearGradient id="paint1_linear_1153_1541" x1="-52.679" y1="-1119.31" x2="1215.36" y2="-1074.63" gradientUnits="userSpaceOnUse">
<stop stop-color="white"/>
<stop offset="1"/>
</linearGradient>
<linearGradient id="paint2_linear_1153_1541" x1="-52.679" y1="-1119.31" x2="1215.36" y2="-1074.63" gradientUnits="userSpaceOnUse">
<stop stop-color="white"/>
<stop offset="1"/>
</linearGradient>
</defs>
</svg>
