<svg width="1648" height="745" viewBox="0 0 1648 745" fill="none" xmlns="http://www.w3.org/2000/svg">
<g clip-path="url(#clip0_884_1886)">
<path d="M798.953 1.40075C791.167 3.59692 778.489 10.2853 772.699 15.4762C757.027 29.2522 747.843 48.818 737.66 89.7466C733.967 104.421 728.077 146.5 728.077 153.435C736.538 137.784 747.175 131.075 751.436 129.677C759.722 124.785 772.899 120.193 782.482 118.796C786.575 118.197 795.859 117.798 802.946 117.897C814.726 118.197 816.423 117.997 820.915 115.901C843.376 105.619 856.952 61.1964 846.97 30.3503C840.181 8.98751 829.4 -0.196469 811.631 0.00318258C807.439 0.00318258 801.749 0.70197 798.953 1.40075Z" fill="url(#paint0_linear_884_1886)"/>
<path d="M1281.61 105.419C1250.47 110.111 1226.11 128.08 1211.23 157.229C1202.95 173.4 1194.76 203.747 1194.76 218.122C1194.76 220.518 1194.56 222.515 1194.26 222.515C1194.06 222.515 1191.77 221.217 1189.17 219.52C1180.29 213.93 1171.3 213.431 1152.64 217.623C1135.57 221.317 1122.39 219.52 1110.11 211.634C1097.53 203.448 1091.64 195.362 1077.67 167.111C1065.89 143.353 1061.1 135.766 1053.01 127.78C1042.93 117.798 1029.65 113.206 1017.97 115.601C1001.5 118.995 976.743 143.153 960.871 171.204C947.294 195.162 930.823 246.074 922.238 290.396C920.441 299.48 918.844 307.566 918.545 308.365C918.245 309.163 917.247 306.967 916.348 303.374C905.967 264.342 878.614 235.792 840.88 225.01C825.607 220.618 813.927 219.22 795.459 219.819C763.615 220.818 734.965 228.604 700.825 245.674C687.348 252.363 685.551 253.061 685.951 251.165C691.241 229.103 691.142 230.501 691.142 199.555C691.142 168.808 690.343 160.523 686.649 149.842C680.46 132.272 667.982 127.381 651.211 135.966C642.427 140.458 636.936 144.95 626.954 155.631C617.77 165.514 611.78 169.208 603.295 170.106C596.207 170.905 583.529 169.208 576.142 166.413C573.247 165.414 565.161 160.223 558.174 155.132C534.016 137.363 516.247 130.675 492.688 130.675C474.32 130.675 461.043 134.169 448.964 142.255C421.911 160.223 396.456 210.336 386.473 265.44C383.978 279.016 383.778 281.811 383.778 311.36C383.678 343.204 384.577 354.784 388.769 378.642C389.468 383.035 390.067 386.728 389.867 386.828C389.768 387.028 386.773 380.639 383.379 372.852C376.291 356.581 365.41 337.514 356.725 325.834C353.531 321.442 345.145 312.258 338.257 305.37C325.28 292.293 316.695 285.904 292.537 271.429C278.661 263.044 268.879 254.659 261.591 244.776C250.81 230.201 245.719 217.723 236.934 184.581C227.95 150.74 223.058 138.761 214.074 128.978C208.584 122.889 202.794 119.195 197.303 118.297C191.713 117.298 182.03 119.395 173.745 123.288C156.375 131.673 135.411 158.926 116.744 197.658C103.867 224.312 98.9751 239.485 88.693 285.105C84.8996 301.976 80.6071 319.745 79.2096 324.636C75.9153 335.917 68.0291 354.085 65.7331 355.283C64.7348 355.782 61.5404 355.782 57.6472 355.283C49.0622 353.985 36.1847 354.085 31.4929 355.383C20.8115 358.278 8.33329 380.639 3.44182 405.196C-1.94877 432.748 -0.950508 473.676 6.03729 506.02C10.4296 526.784 19.8132 550.642 28.5979 563.519C39.7784 580.091 59.4441 591.071 80.3077 592.569L88.3935 593.168L89.6913 598.758C93.3848 615.429 107.76 647.373 119.739 665.741C136.41 691.197 158.97 713.058 185.524 729.13C190.715 732.325 197.204 735.919 199.999 737.116C236.934 753.488 282.155 743.705 306.912 713.857C316.795 701.878 323.284 684.808 323.284 670.433C323.284 663.445 320.888 650.068 318.292 641.783C309.008 613.133 285.35 584.084 259.096 569.11C255.003 566.714 242.425 560.824 231.144 556.033C219.864 551.141 205.09 544.353 198.302 540.859C187.521 535.468 185.025 533.672 178.037 526.484C158.471 506.619 147.99 477.47 144.396 433.347C141.701 400.304 148.688 371.455 162.864 356.88C168.953 350.691 174.044 347.896 182.729 345.8C198.801 342.006 213.775 346.099 231.045 358.977C243.722 368.46 253.605 380.938 260.593 396.212L263.089 401.702L256.5 399.506C243.423 395.213 220.463 394.115 205.489 397.31C170.151 404.597 153.879 445.825 173.245 479.067C177.937 487.053 192.013 501.328 199.799 505.92C226.952 521.892 267.681 523.19 296.93 509.015C307.112 504.123 315.797 496.337 322.585 486.055C326.977 479.366 327.476 478.967 326.877 482.062C323.383 502.426 322.884 531.176 325.679 552.439C333.066 607.642 353.032 656.158 382.979 691.696C417.819 733.024 461.343 742.307 491.191 714.756C512.753 694.89 524.832 661.548 526.629 617.525L527.228 601.653L529.923 609.539C534.215 622.217 541.103 633.797 552.983 648.272C581.134 682.612 631.146 706.869 686.15 712.759C721.988 716.552 755.23 707.269 791.367 683.31C827.304 659.552 850.563 636.692 874.422 601.853C889.895 579.292 899.478 561.423 905.667 543.954C907.164 539.861 908.562 535.768 908.862 534.969C909.161 534.171 910.858 539.362 912.755 546.449C923.137 587.078 946.296 631.201 973.249 661.648C1001.9 694.191 1045.42 714.955 1092.94 718.749C1137.96 722.342 1177.69 708.866 1208.04 679.717C1225.71 662.846 1244.18 634.995 1252.06 613.333C1252.66 611.735 1253.56 612.734 1256.95 619.122C1271.03 645.077 1316.95 686.006 1352.19 703.974C1387.83 722.043 1416.08 725.936 1460.8 718.649C1498.13 712.659 1534.07 697.885 1561.62 677.221C1571.11 670.133 1589.17 652.364 1597.76 641.683C1616.73 618.324 1632.7 586.08 1640.48 555.334C1653.36 505.121 1647.17 457.704 1624.11 428.954C1598.86 397.509 1563.42 393.117 1527.48 416.875C1516 424.462 1509.91 431.151 1488.55 459.601C1475.17 477.47 1461.8 492.643 1449.22 504.323C1432.95 519.496 1424.46 523.489 1408.89 523.39C1389.12 523.29 1373.45 514.505 1373.45 503.524C1373.45 496.936 1376.45 495.139 1393.91 491.545C1401 490.148 1410.39 487.552 1414.68 485.855C1431.55 479.366 1449.82 463.893 1456.41 450.617C1459.1 445.126 1459.7 442.431 1460.1 435.842C1460.6 425.161 1458.2 418.473 1451.61 411.884C1441.43 401.602 1430.15 399.007 1398.91 399.406C1379.34 399.705 1377.64 399.606 1374.05 397.609C1371.65 396.411 1369.36 394.115 1368.16 391.819C1365.26 386.329 1366.96 381.837 1373.95 375.448C1383.03 367.162 1392.92 364.667 1405.59 367.462C1408.49 368.16 1419.47 373.052 1429.85 378.343C1453.61 390.422 1460.3 392.618 1472.28 392.019C1480.16 391.62 1481.96 391.22 1489.45 387.527C1512.81 375.947 1539.36 338.712 1559.03 290.097C1569.71 263.743 1573.8 244.177 1572.8 223.812C1571.6 195.662 1562.52 173.8 1544.75 156.031C1534.27 145.649 1526.78 141.656 1517.4 141.656C1507.82 141.656 1503.92 143.952 1492.94 155.931C1465.69 185.979 1457.9 190.97 1438.84 191.07C1429.75 191.07 1428.25 190.77 1422.37 187.975C1413.28 183.683 1405.59 177.194 1387.53 158.427C1364.77 134.868 1353.29 125.883 1333.52 115.801C1322.64 110.311 1313.85 107.216 1304.57 105.719C1298.28 104.82 1286.8 104.621 1281.61 105.419ZM521.038 275.622C527.228 277.718 532.918 282.71 543 295.088C558.373 313.855 567.857 322.141 579.237 326.733L584.927 329.029L581.134 331.924C579.037 333.421 571.151 340.109 563.464 346.798C536.412 370.257 532.718 372.852 520.939 376.845C517.644 377.943 512.453 378.642 507.961 378.642C501.672 378.742 499.576 378.243 494.784 375.947C486.798 372.054 480.609 364.866 478.014 356.481C473.821 342.805 473.521 321.941 477.415 308.864C480.509 298.682 489.294 286.803 498.777 280.314C506.564 274.823 514.051 273.226 521.038 275.622ZM1207.34 330.626C1214.83 349.693 1227.11 370.357 1239.38 384.432C1250.37 397.11 1262.54 406.194 1283.11 417.275L1292.99 422.566L1288.6 423.664C1278.82 426.159 1268.03 432.348 1258.75 440.634C1253.86 445.126 1253.36 445.326 1252.46 443.529C1251.86 442.531 1248.37 438.637 1244.68 435.044C1227.01 417.375 1203.25 414.879 1176.19 427.756C1159.02 435.842 1144.65 447.622 1110.81 481.063C1073.77 517.6 1061.69 525.985 1046.02 525.985C1019.57 525.985 998.206 497.834 989.92 452.214C988.323 443.229 987.824 436.341 987.824 421.667C987.624 384.632 993.813 362.371 1009.39 343.204C1014.08 337.414 1022.06 332.323 1026.46 332.323C1032.25 332.323 1040.13 338.213 1049.22 349.094C1065.99 369.358 1076.87 379.541 1088.15 385.131C1104.72 393.516 1120.59 393.217 1140.86 383.933C1146.05 381.537 1149.84 378.443 1159.62 368.859C1166.41 362.171 1173.9 354.085 1176.29 350.791C1183.48 340.609 1191.07 324.137 1194.76 310.461C1195.96 306.269 1197.16 302.176 1197.46 301.377C1197.76 300.578 1199.25 304.771 1200.85 310.661C1202.45 316.65 1205.34 325.635 1207.34 330.626ZM751.636 346.798C767.808 353.286 773.697 362.171 779.587 388.225C782.282 400.304 781.783 409.488 777.591 425.161C770.503 452.014 765.612 462.695 754.731 474.175C742.252 487.452 730.673 494.54 710.208 501.428C681.958 510.911 672.574 510.412 645.321 497.435C605.192 478.368 594.311 474.375 579.836 473.377C568.855 472.678 561.168 474.175 552.084 478.767C535.613 487.053 521.737 505.022 516.846 524.488L515.648 529.379L510.856 515.304C508.261 507.517 503.469 495.239 500.275 487.852C496.98 480.564 494.385 474.475 494.485 474.375C494.485 474.275 496.282 474.575 498.278 475.174C507.861 477.769 533.616 476.571 553.182 472.578C567.857 469.484 590.417 460.599 598.204 454.809C599.901 453.512 603.994 451.016 607.288 449.219C617.969 443.229 629.749 433.147 655.204 408.191C689.944 374.15 699.527 365.765 718.094 353.187C731.87 344.003 740.555 342.306 751.636 346.798Z" fill="url(#paint1_linear_884_1886)"/>
</g>
<defs>
<linearGradient id="paint0_linear_884_1886" x1="-112.394" y1="-1018.17" x2="2578.06" y2="-795.841" gradientUnits="userSpaceOnUse">
<stop stop-color="white"/>
<stop offset="1"/>
</linearGradient>
<linearGradient id="paint1_linear_884_1886" x1="-112.394" y1="-1018.17" x2="2578.06" y2="-795.841" gradientUnits="userSpaceOnUse">
<stop stop-color="white"/>
<stop offset="1"/>
</linearGradient>
<clipPath id="clip0_884_1886">
<rect width="1648" height="745" fill="white"/>
</clipPath>
</defs>
</svg>
