<svg width="1006" height="662" viewBox="0 0 1006 662" fill="none" xmlns="http://www.w3.org/2000/svg">
<g opacity="0.1">
<path d="M155.189 181.099V182.426C149.917 235.198 157.496 273.698 161.779 296.931C163.756 305.561 165.074 313.194 164.415 315.517C164.085 318.505 162.767 320.164 161.12 321.492H160.79C159.802 322.155 158.484 322.487 157.496 322.819H154.86C151.565 323.151 148.599 322.155 145.963 319.832C141.68 316.513 138.715 312.862 137.397 309.543C133.772 300.25 131.136 290.625 129.489 282.991C127.512 273.698 125.865 263.741 124.876 253.784C123.888 246.151 123.888 237.853 123.558 230.22V225.241C123.558 214.952 123.229 204 123.558 193.379C123.888 189.728 124.547 182.426 125.535 175.788C125.865 172.469 126.194 168.818 126.524 166.495C126.853 163.84 126.853 161.185 125.865 159.525C125.865 159.857 111.367 213.293 100.165 219.267C99.5055 220.263 98.5171 220.926 96.5401 220.595C88.9619 222.586 84.0196 217.607 82.7016 216.28C82.7016 215.948 82.7016 215.948 82.7016 215.948C82.3721 215.616 82.3721 215.616 82.3721 215.616C81.7132 214.62 81.0542 213.293 80.3952 211.301C78.0888 202.008 75.7824 192.383 73.8054 183.09C69.8516 168.486 65.5682 153.551 63.2618 147.245L61.9438 144.258L58.9784 157.534C57.99 161.517 54.6951 185.745 53.7066 194.043C53.3771 197.362 52.0592 221.258 50.4117 246.151C48.7643 270.711 46.7874 298.591 46.7874 301.246C45.1399 312.53 41.5156 319.168 35.9142 320.496H35.2553C31.3014 321.492 27.3475 322.487 23.3937 322.819C21.7462 322.819 20.4283 322.155 18.1219 318.505C12.5206 308.88 8.5667 297.927 6.26028 284.651C4.61284 276.353 3.29488 267.392 2.30642 257.767L1.97693 254.116C0.988465 244.159 0 234.202 0 224.577C0 211.301 0.988465 196.698 2.30642 180.103C3.29488 167.823 5.27182 155.542 7.57824 143.594C9.55517 132.973 12.5206 121.357 16.8039 106.421C19.7693 96.7964 23.0642 86.8395 27.0181 76.5507C28.995 71.9041 31.3014 66.9256 33.6078 61.9471C35.2553 58.2962 37.2322 54.6453 38.8796 50.6626C41.5156 44.6884 45.7989 39.0461 50.4117 34.3996C51.4002 33.072 52.0592 32.0763 52.3887 31.0806C53.0476 29.753 53.3771 29.4211 53.7066 29.0892C54.6951 28.7573 55.3541 28.4254 56.013 28.0935C57.0015 27.4297 58.3195 27.0978 58.9784 26.7659C66.2272 26.1021 73.1464 27.0978 79.7362 29.0892C85.008 31.0806 89.2914 32.7401 92.5863 34.7314C94.2337 36.059 95.8812 37.7185 94.8927 43.3608C94.5632 46.3479 92.5863 70.5765 90.9388 94.1413C91.2683 128.991 92.5863 181.099 94.5632 186.409H95.5517C101.153 180.103 123.229 84.8481 137.067 65.9299C155.519 24.7745 169.028 26.434 171.005 26.7659H171.993C172.981 27.0978 174.299 27.0978 175.288 27.7616H176.276C178.253 28.0935 179.571 29.4211 179.571 30.4168L179.901 31.4125L180.23 32.0763C182.207 36.059 178.912 51.3264 174.629 70.5765C170.016 92.8137 163.426 122.685 157.166 164.172V164.504C157.166 166.495 156.837 168.818 156.507 170.81C156.178 172.469 155.848 174.129 155.848 175.788C155.519 177.448 155.519 179.439 155.189 181.099Z" fill="url(#paint0_linear_247_598)"/>
<path d="M345.119 216.612C347.096 220.595 345.119 225.573 341.165 227.232C340.506 227.564 321.066 236.526 296.684 253.121C295.366 290.293 285.481 368.953 272.302 414.423C271.972 415.087 261.429 450.6 235.069 456.574C231.775 457.238 228.48 457.57 224.855 457.57C222.549 457.57 220.242 457.238 217.936 456.906C187.294 449.936 186.635 405.462 187.953 386.544C190.589 343.729 213.982 301.91 255.168 265.069L257.145 236.858C257.475 235.53 257.475 234.202 257.475 232.543C257.804 231.215 257.804 229.556 257.804 227.564C257.804 226.569 257.804 225.241 257.804 223.582C257.804 223.582 237.046 281 206.404 274.362C202.78 274.362 199.155 273.698 195.531 272.371C189.6 269.715 182.022 266.728 179.056 259.427V259.095C172.796 251.461 171.149 242.5 170.49 232.543C170.16 219.267 171.808 206.655 175.762 194.043C177.079 190.06 177.079 186.077 178.397 182.426C181.033 175.456 183.34 168.818 186.964 162.512C189.271 158.53 193.883 157.202 198.496 156.538C205.415 156.206 211.676 158.53 217.936 160.853C220.242 161.849 224.526 171.142 224.196 174.129C222.878 180.103 221.231 186.077 220.242 192.051C217.936 203.336 214.971 214.288 214.312 225.905C213.982 228.56 212.994 231.215 212.664 234.202C212.335 239.181 212.335 244.159 211.346 248.806C210.687 253.121 209.699 257.103 212.005 262.082C213.982 260.754 216.618 259.427 217.607 257.767C222.219 250.465 227.162 243.496 230.457 235.53C240.012 212.297 248.578 188.732 257.804 165.499C259.781 160.521 262.417 155.874 264.394 151.228C265.382 149.236 265.712 147.245 266.371 145.586C267.689 144.258 269.336 142.93 269.666 141.603C272.961 133.969 279.221 131.646 285.811 130.65C285.811 130.65 293.389 127.663 295.695 131.646C297.343 133.305 298.331 136.292 298.002 139.279C297.672 141.603 297.343 144.258 297.343 146.913C298.002 159.857 297.672 212.297 297.343 233.539C318.101 220.263 333.586 212.961 334.575 212.629C338.529 210.969 343.471 212.629 345.119 216.612ZM253.521 291.289L253.85 288.634C228.15 314.522 206.404 347.712 203.768 387.539C201.791 418.074 208.381 438.32 221.56 441.307C226.503 442.303 232.104 440.643 237.046 437.656C239.682 435.333 241.989 432.346 242.648 428.363C243.966 421.725 245.284 414.755 245.943 407.785C247.261 395.505 248.249 382.893 249.237 370.281C249.567 364.638 249.237 358.996 249.567 353.354C250.555 338.75 251.873 324.147 252.532 309.543C253.191 303.569 253.191 297.595 253.521 291.621V291.289Z" fill="url(#paint1_linear_247_598)"/>
<path d="M414.02 70.2446C437.743 72.5679 479.918 71.9041 477.941 81.861C477.282 85.5119 438.073 84.8481 433.79 85.8438C428.847 86.8395 423.246 86.5076 417.645 86.8395C415.009 87.1714 413.361 87.5033 412.043 88.8309C412.043 90.1585 409.407 129.654 385.684 157.202C384.366 159.857 383.378 162.844 383.048 165.831C382.389 171.474 382.06 177.448 382.06 183.09C381.401 193.711 381.071 204 380.742 214.62C380.742 214.62 380.742 216.28 380.742 219.267C380.742 219.931 380.413 220.926 380.413 221.59C380.413 222.254 380.413 222.918 380.413 223.582C380.413 234.866 379.754 255.444 379.754 278.013C379.754 278.345 379.754 278.677 379.754 279.009C380.083 325.474 381.73 380.238 389.638 381.565C390.297 381.565 391.615 381.565 391.615 381.233C406.113 375.923 434.119 285.647 434.119 285.647C434.119 285.647 434.119 285.647 434.119 285.315V285.647C444.663 249.138 451.253 218.271 451.253 217.607C452.241 213.293 456.524 210.638 460.808 211.633C465.091 212.629 467.727 216.612 466.738 221.258C466.738 221.59 457.183 266.065 443.345 310.871C440.709 319.168 438.073 326.802 435.767 333.772C426.87 358.996 407.101 404.798 384.366 407.453C353.724 410.772 340.874 353.686 340.215 350.699C335.932 328.793 332.307 295.604 332.966 245.819C332.966 236.858 333.955 218.935 333.955 218.603C334.284 218.603 336.261 195.37 336.92 190.724C338.897 175.456 339.885 160.189 342.851 144.922C346.146 128.659 348.123 111.732 354.383 96.1327C355.042 94.4732 355.371 92.4818 356.36 90.1585C350.759 90.1585 345.816 90.1585 340.874 90.8223C333.625 91.818 326.376 92.8137 319.457 94.1413C315.503 95.137 311.549 96.4646 307.596 97.7922C302.983 99.4516 298.04 101.111 293.757 98.124C289.474 95.137 286.508 90.8223 287.826 85.18C287.826 84.1843 287.826 83.1886 287.826 82.1929C287.826 75.5549 289.803 73.8955 296.063 72.8998C316.492 69.5808 336.92 68.917 357.348 68.917C362.62 68.917 365.256 67.5894 366.574 62.6109C368.551 56.3049 370.528 49.9988 373.493 44.0246C375.47 39.7099 379.095 35.7271 382.389 32.4082C384.366 29.753 387.332 27.0978 390.297 26.1021C399.852 22.4512 404.136 23.4469 408.749 33.072C413.361 42.3651 415.009 52.654 414.02 62.9428C413.691 64.9342 414.02 66.9256 414.02 70.2446ZM396.228 51.9902C387.661 51.6583 387.332 68.5851 387.332 68.5851C387.332 68.5851 394.91 68.917 396.228 68.917C396.228 63.6066 396.228 58.6281 396.228 51.9902ZM382.719 128.327C384.037 126.004 385.355 123.68 386.673 121.025C389.968 117.042 396.228 88.8309 396.228 88.8309L385.025 90.1585L382.719 128.327Z" fill="url(#paint2_linear_247_598)"/>
<path d="M587.187 211.301C591.47 212.961 593.777 217.276 592.459 221.59C592.129 222.254 587.187 236.858 578.95 253.121C567.418 276.022 556.215 289.961 545.013 294.94C541.388 296.599 538.093 297.263 534.798 297.263C532.163 297.263 529.527 296.931 527.22 295.935C507.78 288.966 505.803 264.073 507.78 243.496C506.792 246.483 505.474 249.47 504.486 252.789C500.532 267.06 496.248 281.332 492.953 295.604C490.647 305.229 484.387 368.289 484.716 369.949C485.375 374.595 482.739 378.246 478.126 379.242C468.571 380.901 460.993 377.914 454.403 371.276C453.415 369.949 452.426 368.289 452.097 366.298C450.12 354.018 446.166 321.16 445.507 317.509C442.212 297.927 444.189 278.677 444.519 259.427C444.519 249.802 445.178 240.508 446.166 230.883C446.166 228.56 446.496 226.569 446.825 224.245C449.461 200.349 473.184 110.404 477.138 98.4559C478.126 95.4689 490.318 85.8438 496.248 86.5076C500.532 86.8395 505.145 89.8266 508.11 93.1456C510.087 95.137 509.428 99.7835 509.428 103.434C509.098 109.077 506.133 142.93 502.838 153.551C501.85 157.202 489 219.599 488.341 222.586C489 222.586 489.329 222.918 489.659 222.918C493.942 216.944 498.225 211.301 502.509 205.659C505.144 202.672 508.769 200.017 510.087 196.698C512.723 190.06 518.654 190.392 523.925 189.396C531.174 187.737 534.139 190.724 533.151 197.362C531.833 211.301 529.527 225.241 528.538 239.181C527.879 249.47 528.209 259.759 528.538 270.379C528.538 273.366 530.515 276.022 531.833 279.009C533.48 282.991 538.752 280.004 539.411 279.672C541.718 277.681 544.354 275.69 546.66 273.366C548.307 271.375 549.955 269.384 551.602 266.728C554.897 262.082 557.863 257.103 560.828 252.125C567.418 239.845 573.019 226.569 576.643 216.612C577.961 212.297 582.904 209.974 587.187 211.301Z" fill="url(#paint3_linear_247_598)"/>
<path d="M597.033 182.094C595.386 182.758 591.432 182.094 590.114 180.767C584.183 174.461 582.206 166.827 584.183 158.861C585.831 153.219 589.125 147.909 589.784 141.935C591.102 132.973 601.317 131.978 607.247 132.973C611.86 133.637 615.155 138.284 613.837 143.262C612.19 149.9 611.531 156.538 609.883 163.176C608.236 171.142 604.611 178.112 597.033 182.094ZM675.781 211.965C680.064 213.293 682.371 217.939 681.053 222.254C677.428 231.879 664.578 266.397 647.115 291.289C646.786 291.953 646.456 292.285 646.127 292.616C646.127 292.948 645.797 293.28 645.468 293.28C636.572 305.892 626.358 315.186 615.484 316.845C614.496 317.177 613.178 317.177 611.531 317.177C611.531 317.177 578.911 320.828 574.298 290.293C573.639 288.966 571.333 256.108 571.333 252.457C571.663 239.181 574.298 204.995 581.877 198.357C591.432 189.396 599.01 193.047 603.952 195.038C612.519 198.689 608.895 216.944 607.577 223.914C606.588 230.22 605.929 236.526 605.929 243.164C605.6 255.776 605.6 268.388 605.929 281C606.588 293.28 611.531 313.858 637.56 275.69C646.456 262.082 656.012 242.5 665.237 216.944C666.885 212.629 671.498 210.638 675.781 211.965Z" fill="url(#paint4_linear_247_598)"/>
<path d="M766.213 211.965C770.825 212.961 773.791 217.276 772.802 221.59C771.484 226.569 762.918 259.427 746.443 282.991C725.686 313.194 702.621 309.875 702.621 309.875C689.771 310.871 664.73 305.892 661.435 257.435C661.435 257.435 661.435 257.435 661.435 257.103C660.776 250.797 660.776 244.159 661.435 237.521C663.742 185.081 688.453 157.534 693.396 153.883C698.997 149.568 727.333 142.93 735.9 169.814C735.9 169.814 739.524 180.767 733.923 182.758C728.98 184.75 724.697 174.461 724.368 173.797C722.391 170.146 718.107 169.15 715.471 172.801C715.471 172.801 699.656 191.056 700.974 226.901C701.962 262.414 706.246 286.974 715.142 287.306C718.107 287.306 721.073 286.31 723.379 284.651C740.842 270.047 753.033 232.543 756.328 218.271C757.316 213.957 761.929 210.969 766.213 211.965Z" fill="url(#paint5_linear_247_598)"/>
<path d="M899.462 211.965C904.075 212.961 906.711 217.276 906.052 221.59C897.485 262.414 890.566 285.979 884.306 295.604C877.387 306.556 869.808 312.198 861.571 313.526C859.924 314.19 857.947 314.522 855.64 314.854C846.415 315.186 838.507 312.198 832.576 304.565C824.01 293.28 821.374 280.004 819.726 266.728C818.738 255.776 816.431 230.883 815.772 230.883C814.125 236.858 812.477 242.5 810.83 248.474C808.524 257.767 806.876 267.06 804.24 276.022C801.604 284.983 790.402 311.867 787.766 316.181C783.482 322.155 776.234 323.483 769.315 320.496C756.794 314.854 752.84 304.233 751.852 292.285C751.193 280.668 751.193 269.052 751.852 257.435C752.84 240.177 757.123 223.582 761.077 206.655C764.372 192.383 770.632 179.107 777.222 166.495C783.153 155.874 792.708 148.241 805.888 146.581C809.183 146.249 812.477 145.917 816.102 145.586C820.056 145.254 821.374 138.616 822.033 136.956C824.339 130.982 828.293 125.008 833.565 121.689C839.166 118.37 855.64 119.697 856.629 119.697C862.23 119.034 866.184 121.689 867.173 126.999C868.161 132.641 866.184 155.211 865.525 160.853C864.866 167.823 854.981 239.181 854.323 249.47C853.993 254.78 851.028 294.608 859.265 297.595C862.23 297.263 866.184 293.612 870.138 287.306C875.08 279.341 881.67 256.108 889.578 218.271C890.566 213.957 894.85 211.301 899.462 211.965ZM774.916 260.422C781.506 265.069 806.217 195.37 815.113 160.521C806.876 156.87 800.616 157.866 795.674 164.172C790.072 171.142 787.436 179.771 783.482 187.405C779.858 194.706 775.245 213.293 774.916 214.952V215.284C774.916 215.284 765.69 254.116 774.916 260.422Z" fill="url(#paint6_linear_247_598)"/>
<path d="M998.399 211.301C1003.01 211.633 1006.31 215.616 1005.98 219.931C1004.99 233.207 995.434 348.707 955.236 371.94C950.294 374.595 944.692 376.255 939.421 376.255C898.234 364.97 888.679 307.22 887.691 262.746C887.691 259.427 888.02 255.776 888.02 252.125C888.02 248.142 888.02 244.159 888.02 240.177C888.02 240.177 889.338 220.263 889.668 209.974C889.997 207.65 889.997 205.991 889.997 204.995C889.997 191.719 892.304 178.775 893.622 165.831C895.599 144.258 900.541 123.016 906.801 102.107C910.755 88.1671 914.05 73.8955 919.651 60.6195C926.571 43.0289 936.126 26.434 950.294 12.8262C952.93 10.171 971.051 0.54592 973.028 0.214026C976.653 -0.781676 985.549 1.87352 987.526 4.52871C989.503 6.52009 991.48 9.50718 993.786 10.8348C1003.01 15.4813 1004.33 22.7831 1004 31.4125C1003.67 45.3522 999.388 57.9643 993.457 70.5765C991.15 76.2188 988.514 81.861 985.549 87.1714C980.936 95.8008 975.994 104.098 971.381 112.728C968.745 117.042 966.109 121.689 963.473 126.004C958.86 133.969 954.577 141.603 949.964 149.236C947.658 152.887 945.022 156.538 942.386 160.189C938.103 165.168 937.773 171.474 936.785 177.448C935.796 185.081 935.796 193.047 934.808 200.681C934.149 206.987 932.172 213.625 932.172 219.931C931.842 230.883 932.501 241.836 933.16 252.789C933.49 260.754 934.149 268.72 935.137 276.685C936.126 284.319 937.114 291.953 938.432 299.586C940.409 309.543 942.386 319.5 944.692 329.457C945.351 332.112 946.01 335.099 946.999 338.087C949.635 345.388 954.248 351.031 960.178 342.401C962.814 338.087 965.45 333.108 968.086 326.47C969.075 323.151 970.063 320.496 970.722 318.505C974.017 308.88 977.312 297.263 980.277 282.66C987.196 249.802 989.503 219.267 989.503 218.935C989.832 214.288 993.786 211.301 998.399 211.301ZM951.941 102.107C949.635 112.064 947.658 122.021 945.351 131.978C945.681 131.978 945.681 131.978 945.681 131.978C947.658 129.322 949.964 126.667 951.612 123.68C959.19 110.736 966.768 97.7922 974.017 84.5162C982.584 69.2489 990.491 53.6497 993.127 36.3909C994.445 29.0892 991.809 23.7788 984.561 20.7917C982.254 19.796 980.607 19.796 979.289 22.7831C977.641 25.4383 975.335 28.0935 973.358 30.4168C970.393 34.7314 966.109 38.3823 964.462 42.697C961.167 53.3178 959.19 63.9385 956.883 74.8912C954.907 83.8524 953.589 93.1456 951.941 102.107Z" fill="url(#paint7_linear_247_598)"/>
<path d="M401.688 385.631C403.006 391.937 402.347 397.579 402.676 403.553C402.676 407.868 402.347 431.433 392.791 426.454C392.462 426.454 392.462 426.454 392.462 426.123C392.133 426.123 392.132 426.123 392.132 426.123C391.144 425.459 390.156 424.463 389.167 423.467C384.225 417.825 383.566 407.204 381.589 396.584C381.259 395.588 381.259 394.924 381.259 393.928C380.93 391.605 380.271 389.614 379.282 387.954C375.329 375.342 363.138 374.678 359.513 374.678C359.184 374.678 358.854 374.678 358.525 375.01C358.525 375.01 334.472 368.04 320.963 479.558C307.454 590.744 329.859 625.925 344.027 624.266C359.513 626.589 387.849 522.705 387.849 522.705C389.167 519.718 390.485 516.731 391.803 513.744C392.133 513.08 394.439 512.084 395.098 512.748C396.416 513.412 398.063 515.071 397.734 516.067C396.745 521.709 395.427 527.352 394.109 532.994C393.78 535.649 393.121 537.972 392.462 540.296C392.462 540.296 376.647 625.262 362.149 638.869C356.548 647.831 347.981 652.809 339.414 658.12C329.53 663.762 320.634 663.098 311.737 657.124C306.795 653.805 302.841 649.822 299.546 645.507C288.344 632.563 276.812 609.994 272.858 570.83C272.199 565.52 271.869 560.21 271.869 554.567C271.869 539.632 271.54 524.696 273.187 509.761C273.517 507.77 273.517 505.778 273.846 503.787C288.014 360.075 341.391 348.126 363.138 352.773C364.126 352.773 365.444 353.105 366.432 353.769C385.543 358.747 392.132 369.368 392.132 369.368C397.075 373.351 399.711 378.993 401.688 385.631Z" fill="url(#paint8_linear_247_598)"/>
<path d="M532.971 512.748C537.584 513.744 540.22 518.058 539.561 522.373C530.994 563.197 524.075 586.761 517.814 596.386C510.895 607.339 503.317 612.981 495.08 614.309C493.432 614.973 491.455 615.305 489.149 615.637C479.923 615.968 472.015 612.981 466.085 605.348C457.518 594.063 454.882 580.787 453.235 567.511C452.246 556.559 449.94 531.666 449.281 531.666C447.633 537.64 445.986 543.283 444.338 549.257C442.032 558.55 440.385 567.843 437.749 576.804C435.113 585.766 423.91 612.649 421.274 616.964C416.991 622.938 409.742 624.266 402.823 621.279C390.302 615.637 386.348 605.016 385.36 593.067C384.701 581.451 384.701 569.835 385.36 558.218C386.348 540.959 390.632 524.365 394.586 507.438C397.881 493.166 404.141 479.89 410.731 467.278C416.661 456.657 426.217 449.024 439.396 447.364C442.691 447.032 445.986 446.7 449.61 446.368C453.564 446.036 454.882 439.398 455.541 437.739C457.847 431.765 461.801 425.791 467.073 422.472C472.674 419.153 489.149 420.48 490.137 420.48C495.739 419.816 499.692 422.472 500.681 427.782C501.669 433.424 499.692 455.993 499.034 461.636C498.375 468.606 488.49 539.964 487.831 550.253C487.501 555.563 484.536 595.391 492.773 598.378C495.739 598.046 499.692 594.395 503.646 588.089C508.589 580.123 515.178 556.891 523.086 519.054C524.075 514.739 528.358 512.084 532.971 512.748ZM408.424 561.205C415.014 565.852 439.726 496.153 448.622 461.304C440.385 457.653 434.124 458.649 429.182 464.955C423.581 471.925 420.945 480.554 416.991 488.188C413.366 495.489 408.754 514.076 408.424 515.735V516.067C408.424 516.067 399.198 554.899 408.424 561.205Z" fill="url(#paint9_linear_247_598)"/>
<path d="M635.532 517.063C637.179 521.377 635.202 526.024 630.919 527.683C623.341 530.671 611.479 535.981 598.959 542.951C599.288 546.934 599.288 551.58 598.959 557.222L597.641 570.83C593.687 586.43 588.745 598.71 583.143 607.339C564.692 633.559 547.229 631.568 537.015 626.921C532.402 625.262 527.46 621.943 523.176 614.309C518.893 606.343 518.234 597.382 521.529 588.421C526.471 574.149 541.957 558.55 566.998 542.619C565.021 532.994 557.443 535.649 557.443 535.649C553.819 536.645 528.448 540.628 523.835 522.041C523.176 520.05 522.847 518.058 522.847 515.403C521.529 489.847 531.413 450.019 560.079 444.709C560.079 444.709 583.802 441.722 586.109 453.338C589.074 467.942 573.588 491.507 567.987 499.804C567.328 500.8 566.669 501.464 566.01 502.459C558.761 512.416 551.842 522.373 551.842 522.373C552.171 522.373 582.814 511.752 593.687 527.352C610.82 518.722 624.329 513.08 624.988 512.748C628.942 511.089 633.884 513.08 635.532 517.063ZM547.229 497.813C555.796 489.183 563.374 474.912 565.351 465.618C565.68 462.963 565.351 461.304 561.726 460.308C554.807 472.256 550.194 484.869 547.229 497.813ZM567.328 569.835C567.328 566.847 567.657 564.192 567.657 561.537C552.501 571.826 540.31 583.111 536.356 593.731C534.708 598.71 535.038 602.693 537.344 606.675C539.651 611.322 541.957 611.986 543.604 611.986C547.229 612.649 551.842 610.326 555.796 607.671C562.056 599.705 565.351 585.102 567.328 569.835Z" fill="url(#paint10_linear_247_598)"/>
<path d="M726.682 512.748C730.965 513.744 733.601 518.39 732.283 522.373C730.636 529.343 712.514 589.748 677.917 595.391C676.929 595.391 676.27 595.391 675.611 595.391C675.611 595.391 664.079 596.718 653.865 591.076C646.616 587.757 639.038 582.115 632.448 572.822C626.847 564.192 623.552 554.567 622.563 544.61C621.904 537.309 621.904 529.675 622.563 522.041C623.552 514.408 624.87 506.774 626.847 499.472C626.847 499.472 633.766 467.278 657.489 438.735C657.489 438.403 657.489 438.403 657.489 438.403C658.148 437.407 659.137 436.411 659.796 435.748V435.416C674.293 419.153 696.698 430.769 698.346 439.73C698.675 440.726 698.675 441.722 699.005 442.717C701.311 454.334 699.005 465.618 695.71 476.571C690.767 492.17 685.496 507.438 679.894 522.705C677.258 530.339 673.305 537.309 669.021 544.278C666.385 549.589 667.374 554.567 668.362 559.546C669.021 563.197 670.339 566.847 671.657 570.167C672.975 573.817 676.599 579.46 683.189 576.141C685.166 574.813 687.143 573.154 689.12 571.162C689.779 570.498 690.438 569.835 690.768 569.171C702.3 556.227 711.855 533.99 716.468 518.39C717.456 514.076 722.069 511.42 726.682 512.748ZM664.408 484.205C663.42 496.817 664.738 510.757 664.738 510.757C675.94 494.494 680.883 462.631 680.883 458.317C681.212 448.028 678.906 447.364 676.599 450.351C672.646 453.67 664.738 463.627 664.079 484.869L664.408 484.205Z" fill="url(#paint11_linear_247_598)"/>
</g>
<defs>
<linearGradient id="paint0_linear_247_598" x1="1254.65" y1="172.893" x2="-45.3742" y2="725.623" gradientUnits="userSpaceOnUse">
<stop stop-color="#878787"/>
<stop offset="0.25"/>
<stop offset="0.506341" stop-color="#BBBBBB"/>
<stop offset="0.890625"/>
<stop offset="1" stop-color="#666666"/>
</linearGradient>
<linearGradient id="paint1_linear_247_598" x1="1254.65" y1="172.893" x2="-45.3742" y2="725.623" gradientUnits="userSpaceOnUse">
<stop stop-color="#878787"/>
<stop offset="0.25"/>
<stop offset="0.506341" stop-color="#BBBBBB"/>
<stop offset="0.890625"/>
<stop offset="1" stop-color="#666666"/>
</linearGradient>
<linearGradient id="paint2_linear_247_598" x1="1254.65" y1="172.893" x2="-45.3742" y2="725.623" gradientUnits="userSpaceOnUse">
<stop stop-color="#878787"/>
<stop offset="0.25"/>
<stop offset="0.506341" stop-color="#BBBBBB"/>
<stop offset="0.890625"/>
<stop offset="1" stop-color="#666666"/>
</linearGradient>
<linearGradient id="paint3_linear_247_598" x1="1254.65" y1="172.893" x2="-45.3742" y2="725.623" gradientUnits="userSpaceOnUse">
<stop stop-color="#878787"/>
<stop offset="0.25"/>
<stop offset="0.506341" stop-color="#BBBBBB"/>
<stop offset="0.890625"/>
<stop offset="1" stop-color="#666666"/>
</linearGradient>
<linearGradient id="paint4_linear_247_598" x1="1254.65" y1="172.893" x2="-45.3742" y2="725.623" gradientUnits="userSpaceOnUse">
<stop stop-color="#878787"/>
<stop offset="0.25"/>
<stop offset="0.506341" stop-color="#BBBBBB"/>
<stop offset="0.890625"/>
<stop offset="1" stop-color="#666666"/>
</linearGradient>
<linearGradient id="paint5_linear_247_598" x1="1254.65" y1="172.893" x2="-45.3742" y2="725.623" gradientUnits="userSpaceOnUse">
<stop stop-color="#878787"/>
<stop offset="0.25"/>
<stop offset="0.506341" stop-color="#BBBBBB"/>
<stop offset="0.890625"/>
<stop offset="1" stop-color="#666666"/>
</linearGradient>
<linearGradient id="paint6_linear_247_598" x1="1254.65" y1="172.893" x2="-45.3742" y2="725.623" gradientUnits="userSpaceOnUse">
<stop stop-color="#878787"/>
<stop offset="0.25"/>
<stop offset="0.506341" stop-color="#BBBBBB"/>
<stop offset="0.890625"/>
<stop offset="1" stop-color="#666666"/>
</linearGradient>
<linearGradient id="paint7_linear_247_598" x1="1254.65" y1="172.893" x2="-45.3742" y2="725.623" gradientUnits="userSpaceOnUse">
<stop stop-color="#878787"/>
<stop offset="0.25"/>
<stop offset="0.506341" stop-color="#BBBBBB"/>
<stop offset="0.890625"/>
<stop offset="1" stop-color="#666666"/>
</linearGradient>
<linearGradient id="paint8_linear_247_598" x1="1254.65" y1="172.893" x2="-45.3742" y2="725.623" gradientUnits="userSpaceOnUse">
<stop stop-color="#878787"/>
<stop offset="0.25"/>
<stop offset="0.506341" stop-color="#BBBBBB"/>
<stop offset="0.890625"/>
<stop offset="1" stop-color="#666666"/>
</linearGradient>
<linearGradient id="paint9_linear_247_598" x1="1254.65" y1="172.893" x2="-45.3742" y2="725.623" gradientUnits="userSpaceOnUse">
<stop stop-color="#878787"/>
<stop offset="0.25"/>
<stop offset="0.506341" stop-color="#BBBBBB"/>
<stop offset="0.890625"/>
<stop offset="1" stop-color="#666666"/>
</linearGradient>
<linearGradient id="paint10_linear_247_598" x1="1254.65" y1="172.893" x2="-45.3742" y2="725.623" gradientUnits="userSpaceOnUse">
<stop stop-color="#878787"/>
<stop offset="0.25"/>
<stop offset="0.506341" stop-color="#BBBBBB"/>
<stop offset="0.890625"/>
<stop offset="1" stop-color="#666666"/>
</linearGradient>
<linearGradient id="paint11_linear_247_598" x1="1254.65" y1="172.893" x2="-45.3742" y2="725.623" gradientUnits="userSpaceOnUse">
<stop stop-color="#878787"/>
<stop offset="0.25"/>
<stop offset="0.506341" stop-color="#BBBBBB"/>
<stop offset="0.890625"/>
<stop offset="1" stop-color="#666666"/>
</linearGradient>
</defs>
</svg>
