<svg width="25" height="25" viewBox="0 0 25 25" fill="none" xmlns="http://www.w3.org/2000/svg">
<g id="open">
<circle id="Ellipse 13" cx="12.5" cy="12.5" r="12.5" fill="black"/>
<path id="Arrow 2" d="M11.75 17C11.75 17.4142 12.0858 17.75 12.5 17.75C12.9142 17.75 13.25 17.4142 13.25 17L11.75 17ZM13.0303 7.46967C12.7374 7.17678 12.2626 7.17678 11.9697 7.46967L7.1967 12.2426C6.90381 12.5355 6.90381 13.0104 7.1967 13.3033C7.48959 13.5962 7.96447 13.5962 8.25736 13.3033L12.5 9.06066L16.7426 13.3033C17.0355 13.5962 17.5104 13.5962 17.8033 13.3033C18.0962 13.0104 18.0962 12.5355 17.8033 12.2426L13.0303 7.46967ZM13.25 17L13.25 8L11.75 8L11.75 17L13.25 17Z" fill="white"/>
</g>
</svg>
