<svg width="29" height="23" viewBox="0 0 29 23" fill="none" xmlns="http://www.w3.org/2000/svg">
<path id="Vector" fill-rule="evenodd" clip-rule="evenodd" d="M1.99296 9.90136C9.77497 6.6555 14.9643 4.51563 17.5606 3.48182C24.974 0.529956 26.5145 0.0171482 27.5185 0.000177669C27.7393 -0.00351591 28.2331 0.0488934 28.5529 0.297361C29.0273 0.66592 29.03 1.46593 28.9774 1.99541C28.5756 6.03638 26.8373 15.8426 25.953 20.3686C25.5787 22.2836 24.8419 22.9258 24.1287 22.9886C22.5785 23.1252 21.4013 22.0078 19.8999 21.0656C17.5504 19.5912 16.2231 18.6734 13.9425 17.2347C11.3069 15.572 13.0155 14.6582 14.5174 13.1647C14.9106 12.7739 21.7407 6.82631 21.873 6.28675C21.8895 6.21926 21.9049 5.9677 21.7488 5.83493C21.5927 5.70216 21.3623 5.74748 21.1961 5.78362C20.9604 5.83483 17.2071 8.2098 9.93618 12.9084C8.8708 13.6088 7.90583 13.95 7.04128 13.9321C6.08809 13.9125 4.25471 13.4162 2.89172 12.9921C1.21997 12.4719 -0.108717 12.1968 0.00702882 11.3133C0.0673003 10.853 0.729244 10.3824 1.99296 9.90136Z" fill="#575757"/>
</svg>
