<svg width="15" height="12" viewBox="0 0 15 12" fill="none" xmlns="http://www.w3.org/2000/svg">
<path id="Vector" fill-rule="evenodd" clip-rule="evenodd" d="M1.03084 5.16593C5.05602 3.47244 7.74014 2.35598 9.08309 1.8166C12.9176 0.276499 13.7144 0.00894687 14.2337 9.2697e-05C14.3479 -0.00183439 14.6033 0.0255096 14.7687 0.155145C15.0141 0.347437 15.0155 0.764832 14.9883 1.04108C14.7805 3.14942 13.8814 8.26572 13.4239 10.6271C13.2304 11.6262 12.8493 11.9613 12.4803 11.9941C11.6785 12.0653 11.0696 11.4823 10.293 10.9908C9.0778 10.2215 8.39125 9.74265 7.21162 8.99202C5.84839 8.12452 6.73213 7.64775 7.50902 6.86853C7.71236 6.66463 11.2452 3.56155 11.3136 3.28004C11.3222 3.24483 11.3301 3.11358 11.2494 3.04431C11.1686 2.97504 11.0495 2.99869 10.9635 3.01754C10.8416 3.04426 8.90024 4.28337 5.13941 6.73483C4.58834 7.10025 4.08922 7.27827 3.64204 7.26895C3.14901 7.25869 2.20071 6.99978 1.49572 6.77848C0.631017 6.50707 -0.0562332 6.36353 0.0036356 5.90259C0.0348105 5.66244 0.377195 5.41692 1.03084 5.16593Z" fill="black"/>
</svg>
