<svg width="12" height="12" viewBox="0 0 12 12" fill="none" xmlns="http://www.w3.org/2000/svg">
<path id="Vector" d="M11.158 0.842C10.316 0 8.9605 0 6.25 0H5.75C3.0395 0 1.684 0 0.842 0.842C0 1.684 0 3.0395 0 5.75V6.25C0 8.9605 0 10.3155 0.842 11.158C1.684 12.0005 3.0395 12 5.75 12H6.25C8.9605 12 10.3155 12 11.158 11.158C12 10.316 12 8.9605 12 6.25V5.75C12 3.0395 12 1.684 11.158 0.842ZM9.7515 8.5H8.8765C8.543 8.5 8.445 8.234 7.8515 7.6405C7.332 7.14 7.1095 7.075 6.98 7.075C6.8035 7.075 6.751 7.125 6.751 7.375V8.1595C6.751 8.3745 6.6825 8.5 6.126 8.5C5.199 8.5 4.18 7.937 3.4565 6.899C2.3715 5.3785 2.075 4.229 2.075 3.9975C2.075 3.8675 2.125 3.75 2.375 3.75H3.2505C3.474 3.75 3.558 3.848 3.642 4.09C4.07 5.3365 4.792 6.426 5.0885 6.426C5.1995 6.426 5.2505 6.3745 5.2505 6.0925V4.804C5.218 4.211 4.9025 4.162 4.9025 3.951C4.9025 3.8535 4.986 3.75 5.125 3.75H6.5005C6.686 3.75 6.7505 3.849 6.7505 4.0715V5.805C6.7505 5.99 6.831 6.055 6.8865 6.055C6.998 6.055 7.0905 5.99 7.2945 5.786C7.925 5.0815 8.37 3.997 8.37 3.997C8.426 3.867 8.528 3.7495 8.751 3.7495H9.626C9.8905 3.7495 9.9465 3.8855 9.8905 4.071C9.779 4.581 8.713 6.0825 8.713 6.0825C8.62 6.231 8.583 6.305 8.713 6.472C8.806 6.602 9.1115 6.8615 9.3155 7.1025C9.6915 7.5255 9.975 7.882 10.054 8.128C10.127 8.375 10.0015 8.5 9.7515 8.5Z" fill="black"/>
</svg>
