<svg width="59" height="58" viewBox="0 0 59 58" fill="none" xmlns="http://www.w3.org/2000/svg">
<path fill-rule="evenodd" clip-rule="evenodd" d="M18.5566 47.0207L21.4117 38.9109H25.1561L27.0739 44.6186L26.2683 47.0207H18.5566Z" fill="white"/>
<path d="M41.5163 7.13824L55.5765 47.0207C56.943 50.897 54.6028 55.0938 50.587 55.9688L41.2649 57.9999L45.7679 54.3102C47.9136 52.552 48.7483 49.6502 47.8648 47.0207L44.5605 37.1864H35.7734L33.7275 31.3832H42.6107L37.2126 15.3173H36.901L32.5925 28.1638L28.8913 17.665L32.5973 7.13824C33.4968 4.58682 32.5768 1.7492 30.3514 0.210857L30.0464 0H31.4354C35.9698 0 40.0106 2.86119 41.5163 7.13824Z" fill="white"/>
<path fill-rule="evenodd" clip-rule="evenodd" d="M0.391648 47.0208L14.4323 7.13836C15.938 2.86132 19.9788 0 24.5131 0H25.9022L25.5972 0.210859C23.3718 1.7492 22.4518 4.58695 23.3513 7.13836L37.4115 47.0208H29.6999L26.3956 37.1865H11.4015L8.10329 47.0208C7.21978 49.6503 8.05451 52.5521 10.2002 54.3103L14.7031 58L5.38112 55.9689C1.36523 55.0939 -0.974893 50.8971 0.391648 47.0208ZM18.736 15.3174H19.0476L24.4457 31.3833H13.3478L18.736 15.3174Z" fill="white"/>
</svg>
